<?xml version="1.0" encoding="UTF-8"?>
<?xml-stylesheet type="text/xsl" href="turtles.xsl"?>
<!DOCTYPE svg PUBLIC "-//W3C//DTD SVG 1.1//EN" "http://www.w3.org/Graphics/SVG/1.1/DTD/svg11.dtd">
<svg xmlns="http://www.w3.org/2000/svg" xmlns:xlink="http://www.w3.org/1999/xlink"
    width="100%" height="100%" viewBox="0 0 800 600">
    
    <defs>
        <g id="specs">
            <!--<g transform="translate(-300 -120) scale(0.6)"/>-->
            <!--<g transform="translate(200 0) scale(0.8)"/>-->
            
            <g>
                <animateTransform attributeName="transform" type="rotate" from="0" to="30"
                    begin="0s" dur="300s" repeatDur="indefinite"/>
                <g>
                    <animateTransform attributeName="transform" type="translate" from="0 0"
                        to="280 280" begin="0s" dur="300s" repeatDur="indefinite"/>
                    <g>

                        <animateTransform attributeName="transform" type="scale" from="1" to="0.9"
                            begin="0s" dur="300" repeatDur="indefinite"/>
                        <g id="spawn" transform="translate(140 140) scale(0.9) rotate(45)"/>
                        <!---->
                    </g>
                </g>
            </g>
            
            <!--<g transform="translate( 300 -240)  scale(0.6)"/>-->
        </g>
        <g id="turtle" fill="midnightblue" fill-opacity="0.5" stroke-width="5" stroke="black">
            <ellipse cx="0" cy="-85" rx="20" ry="30" transform="rotate(5)"/>
            <path d="M 20 30 L 70 80 C 90 30 50 10 20 30 z"/>
            <path d="M 20 30 L 70 80 C 90 30 50 10 20 30 z" transform="scale(-1 1)"/>
            <path d="M 25 -20 L 80 -40 C 60 -80 20 -50 25 -20 z"/>
            <path d="M 25 -20 L 80 -40 C 60 -80 20 -50 25 -20 z" transform="scale(-1 1)"/>
            <path d="M 10 80 Q 10 100 -20 120 Q 0 100 -10 80 z"/>
            <ellipse cx="0" cy="10" rx="55" ry="75" fill="steelblue" transform="rotate(-2)"
                fill-opacity="0.8" stroke-width="8" stroke-opacity="1"/>
        </g>
    </defs>
    <desc>Turtles, all the way down</desc>
    
    <!--<rect width="100%" height="100%" fill="gainsboro"/>-->
    <g id="pond" transform="translate(540 0)">
       <!--<animateTransform attributeName="transform"
            type="translate" from="0 0" to="120 200"
            begin="0s" dur="20s" repeatCount="indefinite"/>
        <animateTransform attributeName="transform"
            type="scale" from="1" to="0.85"
            begin="0s" dur="20s" repeatCount="indefinite"/>
        <animateTransform attributeName="transform"
                type="rotate" from="0" to="55"
                begin="0s" dur="20s" repeatCount="indefinite"/>-->
            
        <use xlink:href="#turtle" transform="rotate(120)"/>
    </g>

</svg>